<?xml version="1.0" standalone="no"?>
<!DOCTYPE svg PUBLIC "-//W3C//DTD SVG 20010904//EN"
 "http://www.w3.org/TR/2001/REC-SVG-20010904/DTD/svg10.dtd">
<svg version="1.0" xmlns="http://www.w3.org/2000/svg"
 width="252.000000pt" height="250.000000pt" viewBox="0 0 252.000000 250.000000"
 preserveAspectRatio="xMidYMid meet">

<g transform="translate(0.000000,250.000000) scale(0.100000,-0.100000)"
fill="#000000" stroke="none">
<path d="M2139 2333 c-68 -70 -99 -115 -99 -141 0 -10 -9 -31 -21 -46 -16 -21
-29 -26 -63 -26 -23 0 -69 -5 -101 -12 l-59 -12 -65 70 c-79 85 -140 133 -172
136 -22 3 -24 -1 -30 -57 -8 -78 -4 -187 8 -248 8 -39 19 -57 54 -88 24 -21
50 -38 57 -39 14 0 15 -35 3 -158 -7 -67 -13 -88 -32 -108 -50 -54 -103 -80
-214 -107 -102 -24 -133 -26 -445 -32 l-335 -6 -47 31 c-26 17 -64 55 -85 83
-33 46 -38 60 -41 123 -4 62 0 80 24 134 15 34 49 92 76 128 106 143 19 164
-118 27 -65 -64 -99 -121 -120 -198 -11 -42 -10 -57 11 -140 13 -50 35 -123
50 -162 15 -38 29 -81 32 -95 2 -14 9 -45 14 -70 7 -33 5 -63 -6 -115 -9 -40
-18 -144 -21 -240 -3 -93 -7 -185 -10 -204 -6 -36 -74 -110 -127 -138 l-29
-14 3 -102 c2 -56 -1 -142 -5 -192 -11 -116 -2 -126 107 -128 42 -1 78 1 81 4
3 3 3 20 0 38 -5 24 -16 37 -40 48 -18 9 -35 23 -36 32 -8 38 20 152 47 191
25 36 47 52 44 33 -1 -5 -1 -50 0 -100 l1 -93 40 -20 c39 -20 118 -26 150 -12
37 17 16 63 -41 92 l-40 21 7 72 c9 104 29 129 155 207 95 58 146 106 174 161
14 26 34 53 44 59 30 16 165 11 281 -10 126 -23 291 -58 296 -62 16 -16 35
-150 41 -276 4 -108 10 -158 20 -167 7 -8 13 -33 13 -57 0 -116 37 -158 139
-158 84 0 108 14 94 56 -6 20 -23 36 -55 51 -57 28 -59 36 -49 253 7 155 12
149 16 -20 1 -25 6 -54 12 -65 6 -11 14 -42 18 -70 11 -86 29 -105 111 -119
34 -5 100 9 109 24 12 20 -21 63 -62 81 -53 22 -58 46 -49 213 11 205 49 400
87 441 30 34 56 107 62 175 3 36 13 82 21 102 9 21 16 52 16 70 0 18 7 70 16
116 15 72 20 85 44 97 46 24 63 61 57 119 -4 34 -1 64 9 91 18 46 18 45 10
110 -5 41 -2 58 19 99 14 27 25 58 25 68 0 11 7 42 16 69 11 32 14 65 11 92
-9 61 -33 141 -43 144 -5 2 -35 -23 -65 -54z"/>
</g>
</svg>
