<?xml version="1.0" standalone="no"?>
<!DOCTYPE svg PUBLIC "-//W3C//DTD SVG 20010904//EN"
 "http://www.w3.org/TR/2001/REC-SVG-20010904/DTD/svg10.dtd">
<svg version="1.0" xmlns="http://www.w3.org/2000/svg"
 width="900.000000pt" height="600.000000pt" viewBox="0 0 900.000000 600.000000"
 preserveAspectRatio="xMidYMid meet">

<g transform="translate(0.000000,600.000000) scale(0.100000,-0.100000)"
fill="#000000" stroke="none">
<path d="M4801 5983 c-56 -23 -83 -59 -92 -125 -11 -78 -10 -712 1 -790 22
-152 120 -327 343 -611 38 -48 78 -110 88 -137 28 -73 33 -183 20 -426 -18
-339 -32 -393 -113 -415 -72 -19 -135 -56 -205 -122 -131 -121 -147 -127 -226
-77 -150 95 -359 159 -591 180 -215 20 -566 -21 -786 -92 -206 -66 -486 -273
-811 -598 -231 -231 -283 -311 -333 -510 -52 -209 -76 -444 -76 -750 0 -170
-3 -209 -16 -228 -22 -32 -37 -28 -100 29 -50 46 -59 50 -97 47 l-42 -3 -34
-85 c-40 -97 -49 -186 -29 -265 l13 -50 -56 -56 c-64 -64 -78 -102 -56 -146
18 -33 149 -186 223 -259 67 -66 197 -157 288 -203 l71 -35 180 -7 c191 -7
206 -10 356 -73 175 -73 265 -88 734 -120 510 -36 790 -49 874 -42 88 7 160
38 214 91 50 50 50 91 1 160 -74 106 -85 123 -94 154 -7 26 -5 35 13 51 11 11
28 20 36 21 133 6 191 18 286 61 134 61 187 78 243 78 45 0 49 -3 112 -69 43
-46 93 -86 150 -118 47 -27 137 -86 200 -131 145 -103 237 -150 320 -163 121
-20 459 6 599 47 65 19 111 62 111 106 0 69 -42 111 -252 244 -204 131 -253
172 -284 239 -28 60 -30 106 -5 160 25 55 71 92 139 110 206 57 246 81 299
182 42 79 51 116 63 273 11 140 23 198 59 268 31 61 50 153 57 283 9 159 2
195 -55 282 -27 39 -52 82 -55 95 -11 33 10 84 48 121 32 31 42 34 165 52 168
25 356 73 402 104 45 30 104 98 212 250 66 91 88 131 93 164 15 97 -41 223
-124 285 -51 37 -93 104 -142 229 -13 32 -50 98 -84 145 -34 48 -95 140 -136
206 -98 155 -153 215 -232 254 -97 47 -213 82 -314 92 -104 11 -120 16 -128
37 -3 8 -10 94 -16 191 -5 98 -16 210 -25 250 -60 288 -221 709 -367 962 -56
96 -86 114 -175 100 -142 -23 -160 -48 -173 -226 -8 -116 -12 -134 -35 -134
-21 0 -84 78 -150 184 -118 192 -236 281 -385 291 -57 4 -85 1 -119 -12z"/>
</g>
</svg>
