<?xml version="1.0" standalone="no"?>
<!DOCTYPE svg PUBLIC "-//W3C//DTD SVG 20010904//EN"
 "http://www.w3.org/TR/2001/REC-SVG-20010904/DTD/svg10.dtd">
<svg version="1.0" xmlns="http://www.w3.org/2000/svg"
 width="980.000000pt" height="980.000000pt" viewBox="0 0 980.000000 980.000000"
 preserveAspectRatio="xMidYMid meet">

<g transform="translate(0.000000,980.000000) scale(0.100000,-0.100000)"
fill="#000000" stroke="none">
<path d="M2413 8340 c-57 -12 -86 -27 -263 -145 -194 -129 -227 -141 -405
-138 -71 0 -159 6 -195 12 -36 6 -118 11 -182 11 -106 0 -120 -2 -139 -21 -17
-17 -20 -29 -15 -72 3 -29 9 -93 14 -142 11 -108 35 -166 94 -231 84 -92 207
-155 342 -175 148 -22 127 -48 -48 -59 -113 -6 -132 -10 -190 -39 -103 -51
-206 -163 -189 -207 7 -18 41 -17 73 1 50 29 66 20 102 -52 24 -50 44 -76 76
-98 41 -28 49 -30 135 -29 51 1 128 6 172 11 112 12 139 4 194 -55 41 -44 52
-50 99 -56 105 -13 131 -88 73 -204 -42 -85 -78 -179 -94 -250 l-15 -64 24 6
c13 4 24 4 24 1 0 -16 -54 -230 -85 -337 -39 -135 -58 -277 -35 -263 24 15 4
-91 -45 -245 -84 -264 -101 -406 -69 -585 18 -99 21 -106 34 -85 11 18 6 25
74 -109 57 -114 146 -252 210 -326 34 -39 35 -39 36 -14 0 24 6 20 73 -45 80
-78 168 -191 215 -276 17 -30 49 -109 71 -175 56 -164 51 -155 66 -121 l12 28
31 -55 c53 -93 67 -207 66 -502 0 -149 -4 -196 -23 -274 -12 -52 -26 -155 -30
-230 -5 -75 -14 -148 -19 -162 -15 -37 -46 -57 -111 -69 -118 -23 -145 -32
-247 -82 -145 -71 -173 -111 -116 -167 15 -15 50 -36 77 -46 28 -10 59 -26 70
-36 30 -27 118 -42 189 -34 48 5 215 53 284 82 19 8 14 -17 -10 -54 -26 -38
-95 -71 -211 -102 -127 -34 -197 -76 -197 -116 0 -12 -9 -30 -20 -40 -54 -49
7 -113 124 -130 29 -5 57 -17 71 -31 35 -35 97 -47 215 -41 124 5 356 58 395
89 14 11 41 50 59 87 35 69 86 218 86 252 0 26 18 24 23 -3 3 -22 4 -21 16 7
7 17 18 65 23 108 12 89 19 89 53 -4 l23 -64 16 37 c9 20 19 70 23 110 6 64 8
70 17 45 22 -61 28 -23 21 136 -5 129 -3 181 10 256 17 100 60 247 74 256 5 3
29 -32 53 -77 33 -63 54 -89 91 -115 l47 -33 0 55 c0 59 1 60 31 45 11 -6 88
-28 172 -50 271 -68 285 -82 191 -192 -50 -59 -69 -114 -60 -173 3 -22 9 -57
12 -78 8 -46 -7 -64 -81 -107 -65 -37 -92 -67 -99 -110 -15 -84 42 -120 189
-120 l100 0 -54 -47 c-61 -53 -81 -92 -81 -158 0 -118 105 -206 210 -175 59
17 107 11 198 -24 178 -70 387 -100 682 -100 181 0 230 3 311 21 123 27 159
44 233 113 78 73 98 83 146 75 71 -12 89 11 99 125 l6 65 35 -48 c33 -46 66
-74 239 -201 118 -87 334 -178 496 -210 103 -20 304 -46 359 -46 79 0 213 29
383 84 92 30 215 68 273 86 163 50 298 106 422 176 74 43 121 63 136 61 18 -3
29 5 52 38 16 23 37 61 46 84 9 22 20 41 24 41 14 0 54 129 82 265 14 67 4
207 -20 276 -33 94 -90 209 -107 215 -24 10 -45 -16 -124 -154 -115 -201 -208
-306 -347 -389 -147 -89 -273 -122 -504 -130 -435 -15 -697 82 -868 321 -25
36 -129 268 -198 443 -25 62 -63 188 -85 279 -22 92 -49 190 -60 219 -17 47
-71 132 -146 232 l-28 38 28 -18 c52 -33 26 -1 -93 118 -103 102 -256 295
-234 295 3 0 20 -12 37 -26 61 -51 39 -2 -72 163 -62 91 -110 168 -107 170 2
2 18 -3 35 -12 17 -8 31 -12 31 -7 0 16 -96 136 -161 201 -35 35 -127 117
-204 181 -184 154 -208 182 -129 144 19 -9 37 -15 39 -12 3 3 -39 45 -92 93
-54 49 -170 161 -258 250 -88 88 -224 223 -303 299 -149 144 -247 261 -301
358 -23 40 -28 57 -19 60 10 4 10 8 2 19 -69 88 -313 424 -358 492 -32 49 -84
141 -116 205 -59 119 -150 317 -150 328 0 3 14 -4 30 -16 17 -12 30 -17 30
-12 0 6 -30 73 -66 149 -78 164 -87 186 -74 178 25 -15 6 48 -44 145 -29 58
-57 116 -61 130 -7 22 -6 23 9 11 20 -17 21 -6 5 106 -19 141 -31 163 -234
437 -73 98 -139 150 -225 176 -91 28 -508 110 -550 109 -19 -1 -54 -5 -77 -9z"/>
</g>
</svg>
