<?xml version="1.0" standalone="no"?>
<!DOCTYPE svg PUBLIC "-//W3C//DTD SVG 20010904//EN"
 "http://www.w3.org/TR/2001/REC-SVG-20010904/DTD/svg10.dtd">
<svg version="1.0" xmlns="http://www.w3.org/2000/svg"
 width="450.000000pt" height="450.000000pt" viewBox="0 0 450.000000 450.000000"
 preserveAspectRatio="xMidYMid meet">

<g transform="translate(0.000000,450.000000) scale(0.100000,-0.100000)"
fill="#000000" stroke="none">
<path d="M2903 4420 c-86 -18 -114 -42 -161 -136 -17 -33 -56 -92 -87 -130
-115 -139 -172 -239 -280 -494 -81 -191 -126 -275 -218 -403 -44 -62 -99 -153
-124 -204 -30 -63 -83 -143 -170 -255 -69 -90 -154 -204 -188 -253 -77 -109
-179 -224 -303 -341 -149 -139 -393 -442 -513 -634 -118 -191 -201 -393 -235
-575 -24 -129 -15 -350 20 -500 26 -110 108 -298 144 -327 11 -10 78 -13 261
-15 135 0 365 -3 511 -4 318 -5 530 6 530 27 0 17 12 18 28 2 9 -9 15 -9 24 0
19 19 -2 48 -82 113 l-75 61 -253 -6 c-258 -6 -337 1 -349 31 -6 15 29 71 79
129 18 20 85 71 148 113 117 77 260 204 286 253 8 15 14 36 14 48 0 11 12 48
26 83 19 45 25 72 21 105 -6 56 9 73 98 107 39 15 100 41 138 57 37 17 70 28
73 25 9 -8 31 -187 42 -342 10 -128 5 -193 -18 -273 -7 -22 -10 -52 -6 -67 6
-25 9 -26 51 -19 42 6 45 5 55 -22 6 -15 15 -113 20 -218 7 -133 14 -196 24
-211 13 -20 25 -22 168 -28 107 -5 189 -2 273 8 66 8 130 15 143 15 13 0 22 6
22 16 0 12 7 14 30 9 46 -10 38 10 -39 88 -69 71 -69 71 -136 78 -37 3 -73 13
-81 21 -26 25 -31 111 -22 340 7 156 6 281 -3 418 -13 214 -8 512 11 575 17
59 167 363 205 415 48 67 71 117 89 199 41 182 30 392 -31 571 l-36 105 6 175
c9 267 36 345 148 419 68 45 125 65 163 55 14 -3 47 -25 73 -48 l47 -41 90 2
c168 5 243 47 314 181 28 52 33 73 36 144 2 46 7 104 11 130 7 44 6 47 -22 61
-16 9 -67 23 -114 32 -151 29 -213 46 -256 71 -35 20 -46 34 -64 84 -26 71
-56 100 -134 129 -107 40 -340 68 -422 51z m-282 -3939 c6 -50 9 -106 7 -124
l-3 -32 -17 30 c-22 41 -32 114 -23 181 9 78 23 57 36 -55z"/>
</g>
</svg>
