<?xml version="1.0" standalone="no"?>
<!DOCTYPE svg PUBLIC "-//W3C//DTD SVG 20010904//EN"
 "http://www.w3.org/TR/2001/REC-SVG-20010904/DTD/svg10.dtd">
<svg version="1.0" xmlns="http://www.w3.org/2000/svg"
 width="297.000000pt" height="297.000000pt" viewBox="0 0 297.000000 297.000000"
 preserveAspectRatio="xMidYMid meet">

<g transform="translate(0.000000,297.000000) scale(0.100000,-0.100000)"
fill="#000000" stroke="none">
<path d="M81 2936 c-53 -29 -50 42 -51 -1448 l0 -1388 29 -32 29 -33 1402 0
1402 0 29 33 29 32 0 1109 0 1109 -239 300 c-131 164 -249 306 -262 316 -21
15 -121 16 -1184 16 -944 -1 -1164 -3 -1184 -14z m511 -682 l3 -476 33 -29 32
-29 828 0 c898 0 853 -3 884 53 10 16 14 133 18 451 l5 430 168 -210 167 -209
-2 -990 -3 -990 -110 0 -110 0 -5 588 -5 589 -33 29 -32 29 -940 0 -940 0 -32
-29 -33 -29 -5 -589 -5 -588 -110 0 -110 0 -3 1238 -2 1237 170 0 169 0 3
-476z m1568 81 l0 -395 -672 2 -673 3 -3 380 c-1 209 0 386 3 392 3 10 147 13
675 13 l670 0 0 -395z m118 -1572 l-3 -508 -785 0 -785 0 -3 495 c-1 272 0
501 3 508 3 9 171 12 790 12 l785 0 -2 -507z"/>
<path d="M1883 2600 c-17 -10 -37 -28 -42 -39 -7 -12 -11 -98 -11 -221 0 -219
5 -246 55 -268 49 -23 94 -15 131 22 l34 34 0 201 c0 223 -5 248 -60 276 -39
20 -68 19 -107 -5z"/>
</g>
</svg>
