<?xml version="1.0" standalone="no"?>
<!DOCTYPE svg PUBLIC "-//W3C//DTD SVG 20010904//EN"
 "http://www.w3.org/TR/2001/REC-SVG-20010904/DTD/svg10.dtd">
<svg version="1.0" xmlns="http://www.w3.org/2000/svg"
 width="150.000000pt" height="145.000000pt" viewBox="0 0 150.000000 145.000000"
 preserveAspectRatio="xMidYMid meet">
<metadata>
Created by potrace 1.16, written by Peter Selinger 2001-2019
</metadata>
<g transform="translate(0.000000,145.000000) scale(0.100000,-0.100000)"
fill="#000000" stroke="none">
<path d="M1157 1356 c-4 -9 -13 -13 -21 -10 -21 8 -45 -41 -28 -58 18 -18 15
-24 -17 -37 -44 -19 -88 -70 -129 -152 -28 -57 -47 -81 -81 -103 -42 -28 -50
-30 -136 -28 -50 1 -106 7 -125 12 -19 6 -52 10 -73 10 -54 0 -141 44 -208
106 -62 57 -121 88 -150 79 -9 -3 -29 -21 -44 -41 -24 -32 -25 -37 -14 -72 7
-20 18 -43 23 -50 7 -9 6 -16 -3 -21 -23 -15 -2 -78 40 -118 27 -26 39 -46 39
-65 0 -16 6 -31 14 -34 9 -4 13 -22 12 -59 -1 -45 3 -58 25 -82 15 -16 29 -45
32 -68 11 -70 48 -127 110 -169 l58 -38 -7 -57 c-10 -83 -27 -124 -57 -139
-34 -16 -35 -34 -3 -26 20 5 25 2 28 -18 3 -22 6 -23 93 -23 123 -1 134 6 40
25 l-80 16 3 69 c4 79 14 105 43 105 10 0 37 11 59 25 48 30 73 31 109 6 27
-19 121 -161 121 -182 0 -6 -10 -20 -22 -31 l-23 -19 34 5 c25 4 40 1 53 -11
16 -14 23 -15 38 -5 11 7 52 12 90 12 45 0 69 4 65 10 -3 6 -30 10 -58 10 -29
0 -62 3 -74 6 -20 6 -123 130 -123 149 0 4 16 25 34 47 19 22 38 54 42 72 8
41 19 53 68 78 23 11 64 38 93 59 44 33 59 54 97 131 74 154 80 174 81 279 1
83 4 100 24 125 15 19 20 36 16 52 -6 23 -4 24 24 19 34 -7 36 -5 21 23 -7 13
-7 21 0 25 17 10 11 61 -10 88 -11 14 -20 30 -20 36 0 6 -7 8 -15 5 -9 -4 -15
0 -15 10 0 19 -16 21 -24 4 -3 -10 -9 -8 -19 4 -8 10 -17 15 -21 11 -4 -4 -11
-2 -15 6 -7 10 -9 9 -14 -3z"/>
</g>
</svg>
