<?xml version="1.0" standalone="no"?>
<!DOCTYPE svg PUBLIC "-//W3C//DTD SVG 20010904//EN"
 "http://www.w3.org/TR/2001/REC-SVG-20010904/DTD/svg10.dtd">
<svg version="1.0" xmlns="http://www.w3.org/2000/svg"
 width="155.000000pt" height="157.000000pt" viewBox="0 0 155.000000 157.000000"
 preserveAspectRatio="xMidYMid meet">
<metadata>
Created by potrace 1.16, written by Peter Selinger 2001-2019
</metadata>
<g transform="translate(0.000000,157.000000) scale(0.100000,-0.100000)"
fill="#000000" stroke="none">
<path d="M477 1429 c-26 -15 -57 -93 -57 -144 0 -41 -3 -46 -57 -87 -43 -32
-66 -60 -88 -104 -49 -97 -85 -183 -85 -202 0 -24 28 -62 46 -62 16 0 16 -4
14 -76 -3 -97 95 -236 223 -320 40 -26 78 -54 85 -62 24 -30 14 -68 -33 -123
-51 -60 -58 -89 -20 -89 13 0 50 -7 82 -15 47 -13 98 -14 278 -9 121 3 225 10
231 15 6 5 35 4 70 -2 80 -15 179 -6 213 18 35 27 47 119 33 258 -25 251 -153
449 -362 562 -76 41 -132 54 -238 56 -63 1 -93 6 -96 15 -3 6 -15 12 -27 12
-28 0 -19 22 12 31 l24 7 -23 7 c-22 7 -23 8 -5 29 43 50 73 132 76 208 2 42
-1 53 -15 56 -17 3 -122 -62 -147 -92 -22 -26 -28 -19 -34 41 -8 76 -46 103
-100 72z"/>
</g>
</svg>
