<?xml version="1.0" standalone="no"?>
<!DOCTYPE svg PUBLIC "-//W3C//DTD SVG 20010904//EN"
 "http://www.w3.org/TR/2001/REC-SVG-20010904/DTD/svg10.dtd">
<svg version="1.0" xmlns="http://www.w3.org/2000/svg"
 width="150.000000pt" height="145.000000pt" viewBox="0 0 150.000000 145.000000"
 preserveAspectRatio="xMidYMid meet">
<metadata>
Created by potrace 1.16, written by Peter Selinger 2001-2019
</metadata>
<g transform="translate(0.000000,145.000000) scale(0.100000,-0.100000)"
fill="#000000" stroke="none">
<path d="M602 1137 c-7 -18 -25 -56 -40 -86 -25 -50 -32 -56 -86 -76 -50 -19
-138 -79 -195 -136 -9 -8 -33 -28 -54 -44 -26 -19 -35 -31 -27 -39 15 -15 12
-36 -5 -36 -8 0 -15 7 -15 15 0 21 -20 18 -50 -7 l-25 -20 23 -15 c32 -22 28
-36 -9 -28 -28 6 -30 5 -20 -12 30 -57 150 -113 291 -135 78 -12 84 -15 105
-48 39 -61 93 -110 122 -110 17 0 18 111 1 128 -6 6 -9 14 -6 17 3 3 56 8 117
12 l112 6 42 -40 c50 -48 76 -63 112 -63 22 0 30 8 48 48 20 44 27 108 17 142
-4 12 6 16 42 18 41 3 55 -2 105 -35 83 -55 113 -67 129 -51 18 19 44 132 44
191 -1 43 -17 119 -47 210 -3 9 -14 17 -25 17 -22 0 -92 -46 -123 -80 -37 -41
-93 -60 -122 -42 -10 6 -10 15 -1 39 9 24 9 43 -2 88 -29 121 -100 147 -204
75 -76 -53 -103 -53 -151 3 -21 23 -43 56 -51 73 -22 51 -38 58 -52 21z"/>
</g>
</svg>
