<?xml version="1.0" standalone="no"?>
<!DOCTYPE svg PUBLIC "-//W3C//DTD SVG 20010904//EN"
 "http://www.w3.org/TR/2001/REC-SVG-20010904/DTD/svg10.dtd">
<svg version="1.0" xmlns="http://www.w3.org/2000/svg"
 width="150.000000pt" height="129.000000pt" viewBox="0 0 150.000000 129.000000"
 preserveAspectRatio="xMidYMid meet">
<metadata>
Created by potrace 1.16, written by Peter Selinger 2001-2019
</metadata>
<g transform="translate(0.000000,129.000000) scale(0.100000,-0.100000)"
fill="#000000" stroke="none">
<path d="M525 945 c-5 -2 -42 -13 -82 -25 -89 -27 -148 -76 -214 -180 -26 -41
-64 -100 -83 -131 -37 -57 -45 -94 -23 -102 12 -6 5 -14 -32 -36 -19 -12 1
-47 39 -66 40 -21 53 -19 80 10 25 27 53 34 44 12 -8 -21 184 -51 290 -45 57
3 86 1 86 -6 1 -14 39 -94 40 -82 0 6 5 5 12 -2 9 -9 16 -3 28 30 19 53 47 68
124 68 76 0 160 27 199 63 36 34 63 32 59 -3 -10 -85 -8 -100 13 -100 12 0 27
6 33 12 10 10 14 10 20 1 6 -9 19 -2 46 22 35 31 38 39 39 86 1 46 -3 55 -31
80 -18 16 -39 29 -47 29 -8 0 -15 6 -15 13 1 39 16 59 69 87 31 17 69 42 83
55 29 27 44 80 34 120 -16 64 -186 48 -269 -26 -25 -21 -48 -39 -52 -39 -4 0
-27 18 -52 39 -93 82 -204 121 -340 120 -48 0 -92 -2 -98 -4z"/>
</g>
</svg>
