<?xml version="1.0" standalone="no"?>
<!DOCTYPE svg PUBLIC "-//W3C//DTD SVG 20010904//EN"
 "http://www.w3.org/TR/2001/REC-SVG-20010904/DTD/svg10.dtd">
<svg version="1.0" xmlns="http://www.w3.org/2000/svg"
 width="150.000000pt" height="129.000000pt" viewBox="0 0 150.000000 129.000000"
 preserveAspectRatio="xMidYMid meet">
<metadata>
Created by potrace 1.16, written by Peter Selinger 2001-2019
</metadata>
<g transform="translate(0.000000,129.000000) scale(0.100000,-0.100000)"
fill="#000000" stroke="none">
<path d="M275 1043 c-12 -2 -33 -14 -48 -26 -23 -19 -27 -30 -28 -79 -1 -34 3
-64 11 -73 15 -19 31 -20 24 -2 -4 10 5 13 32 13 33 -2 39 -6 50 -36 7 -19 13
-46 13 -58 2 -40 31 -89 83 -139 52 -50 71 -83 62 -107 -8 -21 -84 -56 -122
-56 -18 0 -32 -4 -32 -9 0 -5 38 -9 84 -8 65 1 82 4 75 13 -7 9 -4 13 13 16
15 2 24 11 26 26 2 12 7 22 11 22 8 0 31 -59 31 -82 0 -25 -34 -48 -72 -48
-41 0 -68 -8 -68 -21 0 -11 218 -10 225 2 4 5 -12 9 -34 9 -44 0 -53 13 -22
29 10 6 21 25 25 42 3 18 11 38 17 46 18 20 184 17 283 -6 73 -18 154 -28 374
-46 44 -4 72 -2 72 4 0 5 12 13 27 18 23 8 13 11 -62 22 -79 10 -196 31 -262
46 -13 3 -23 12 -23 21 0 9 -20 24 -47 35 -103 44 -120 53 -168 87 -27 20 -92
64 -143 99 -58 38 -124 95 -174 147 -93 100 -136 119 -233 99z"/>
</g>
</svg>
