<?xml version="1.0" standalone="no"?>
<!DOCTYPE svg PUBLIC "-//W3C//DTD SVG 20010904//EN"
 "http://www.w3.org/TR/2001/REC-SVG-20010904/DTD/svg10.dtd">
<svg version="1.0" xmlns="http://www.w3.org/2000/svg"
 width="316.000000pt" height="327.000000pt" viewBox="0 0 316.000000 327.000000"
 preserveAspectRatio="xMidYMid meet">
<metadata>
Created by potrace 1.16, written by Peter Selinger 2001-2019
</metadata>
<g transform="translate(0.000000,327.000000) scale(0.100000,-0.100000)"
fill="#000000" stroke="none">
<path d="M1400 3259 c-164 -19 -370 -79 -515 -152 -672 -335 -1019 -1089 -834
-1812 98 -382 328 -709 653 -927 106 -70 246 -143 246 -127 0 6 11 20 24 30
14 11 35 45 47 77 19 48 23 77 23 182 1 158 -16 222 -78 289 -60 64 -92 118
-123 208 -22 66 -27 95 -27 188 -1 124 12 179 72 303 33 69 37 87 40 173 4 90
2 97 -22 126 -26 31 -47 39 -188 69 -63 13 -85 23 -120 54 -54 47 -94 119
-102 185 l-7 50 52 50 c56 55 88 113 89 160 0 78 106 188 221 229 71 26 72 29
60 146 -14 143 -13 143 82 111 141 -49 369 -234 499 -406 60 -79 73 -107 87
-188 26 -149 87 -264 191 -360 75 -70 140 -107 265 -150 345 -121 382 -141
520 -281 143 -144 219 -240 265 -335 43 -89 84 -199 95 -256 6 -37 8 -38 20
-21 29 39 95 174 125 256 202 554 89 1166 -297 1602 -342 388 -851 585 -1363
527z"/>
</g>
</svg>
