<?xml version="1.0" standalone="no"?>
<!DOCTYPE svg PUBLIC "-//W3C//DTD SVG 20010904//EN"
 "http://www.w3.org/TR/2001/REC-SVG-20010904/DTD/svg10.dtd">
<svg version="1.0" xmlns="http://www.w3.org/2000/svg"
 width="155.000000pt" height="157.000000pt" viewBox="0 0 155.000000 157.000000"
 preserveAspectRatio="xMidYMid meet">
<metadata>
Created by potrace 1.16, written by Peter Selinger 2001-2019
</metadata>
<g transform="translate(0.000000,157.000000) scale(0.100000,-0.100000)"
fill="#000000" stroke="none">
<path d="M812 1189 c-82 -14 -235 -94 -331 -174 -115 -95 -291 -259 -291 -270
0 -9 6 -5 31 16 13 12 57 49 98 83 40 33 93 78 118 98 89 76 176 127 290 170
84 32 257 31 326 -1 89 -41 147 -108 147 -168 0 -36 -31 -95 -57 -108 -12 -6
-29 -17 -38 -25 -13 -11 -46 -15 -124 -15 l-107 0 4 -28 c4 -27 6 -27 53 -21
39 5 49 4 49 -8 0 -21 -73 -41 -150 -40 -36 1 -99 -5 -140 -12 -54 -9 -80 -10
-92 -2 -13 8 -25 6 -46 -6 -16 -10 -31 -16 -34 -13 -8 8 -103 -26 -140 -50
-73 -49 -122 -144 -82 -159 33 -13 191 -6 238 10 32 11 61 14 91 9 39 -5 45
-9 45 -31 0 -14 -11 -35 -23 -47 -22 -21 -42 -67 -29 -67 3 0 13 7 23 16 17
15 19 15 34 0 20 -20 26 -20 19 -1 -3 8 4 32 16 52 13 21 26 52 29 68 5 22 13
31 31 33 14 1 63 10 109 18 151 29 245 70 271 119 7 14 17 25 21 25 4 0 30
-27 58 -61 43 -52 49 -64 40 -81 -14 -26 -9 -29 29 -22 19 4 32 14 35 26 7 24
-33 92 -63 108 -11 6 -20 21 -20 33 -1 12 -7 33 -14 45 -11 20 -10 29 6 61 36
73 51 151 38 206 -13 60 -66 135 -119 170 -75 50 -209 67 -349 44z"/>
</g>
</svg>
